<svg width="4" height="6" viewBox="0 0 4 6" fill="none" xmlns="http://www.w3.org/2000/svg">
<path d="M1.86024 1.64C1.93538 2.06135 1.94311 2.68569 1.88343 3.51302C1.8682 3.67826 1.85374 3.88196 1.84004 4.12413C1.82634 4.36629 1.81442 4.56142 1.80426 4.7095C1.79339 4.85365 1.77894 5.00047 1.76091 5.14995C1.73201 5.44359 1.68015 5.59708 1.60533 5.61042C1.5502 5.62025 1.48411 5.5914 1.40706 5.52388C1.33395 5.45566 1.29002 5.3802 1.27527 5.2975C1.25982 5.21087 1.26465 4.99873 1.28976 4.66108C1.31881 4.32272 1.33664 3.86447 1.34324 3.28633C1.34985 2.7082 1.31771 2.10649 1.24684 1.48122C1.23688 1.35704 1.27128 1.28793 1.35004 1.27388C1.43667 1.25844 1.53905 1.29706 1.65715 1.38977C1.7792 1.48177 1.8469 1.56518 1.86024 1.64ZM4.04599 4.51695C4.34471 4.41492 4.60547 4.32779 4.82825 4.25556C5.05496 4.18262 5.22148 4.13667 5.32781 4.11771C5.43807 4.09805 5.52252 4.09315 5.58116 4.10301C5.64304 4.10822 5.67889 4.1384 5.68872 4.19353C5.70838 4.30379 5.43355 4.48282 4.86421 4.73062C4.29811 4.97378 3.87723 5.11994 3.60158 5.1691C3.4795 5.19087 3.34204 5.16053 3.18919 5.07809C3.03958 4.991 2.95424 4.88839 2.93317 4.77025C2.91632 4.67574 3.07163 4.45302 3.3991 4.10208C3.70716 3.77897 4.00159 3.41361 4.28239 3.00598C4.41435 2.8118 4.51593 2.60678 4.58715 2.39092C4.66159 2.17043 4.68407 1.97749 4.65457 1.8121C4.62438 1.64277 4.56344 1.51752 4.47177 1.43635C4.38009 1.35519 4.26928 1.32619 4.13933 1.34937C4.00938 1.37254 3.89433 1.43369 3.79418 1.53281C3.69402 1.63193 3.61553 1.72719 3.55869 1.81859C3.50115 1.90605 3.46254 1.95154 3.44285 1.95505C3.37591 1.96699 3.29188 1.9515 3.19078 1.90858C3.08967 1.86566 3.03385 1.81467 3.02332 1.7556C2.99734 1.6099 3.08865 1.42703 3.29726 1.20699C3.50981 0.986247 3.7539 0.851297 4.02956 0.80214C4.30521 0.752982 4.55116 0.810699 4.76741 0.97529C4.9869 1.13524 5.12228 1.35895 5.17355 1.64641C5.32523 2.49699 4.75578 3.51884 3.4652 4.71194C3.5576 4.68328 3.7512 4.61828 4.04599 4.51695Z" fill="#2B526D"/>
</svg>
