<svg width="5" height="6" viewBox="0 0 5 6" fill="none" xmlns="http://www.w3.org/2000/svg">
<path d="M2.44557 4.89802C2.7353 4.77268 2.98834 4.6652 3.20471 4.57558C3.42495 4.48494 3.58731 4.42597 3.6918 4.39866C3.80016 4.37034 3.88396 4.35877 3.9432 4.36396C4.0053 4.36427 4.04342 4.39151 4.05758 4.44569C4.08591 4.55405 3.82609 4.75426 3.27813 5.04631C2.73303 5.33348 2.32503 5.51247 2.05413 5.58327C1.93416 5.61462 1.79473 5.59525 1.63584 5.52515C1.47981 5.45017 1.38662 5.35463 1.35628 5.23853C1.332 5.14565 1.46921 4.91134 1.76791 4.5356C2.04945 4.18915 2.31406 3.80164 2.56174 3.37308C2.67793 3.16907 2.76299 2.95666 2.8169 2.73585C2.87368 2.51016 2.88083 2.31605 2.83834 2.15351C2.79485 1.98709 2.7242 1.86706 2.6264 1.7934C2.52859 1.71973 2.41583 1.69959 2.28812 1.73297C2.16041 1.76635 2.05056 1.8364 1.95856 1.94314C1.86656 2.04987 1.79584 2.15104 1.74641 2.24664C1.69597 2.33838 1.66107 2.38678 1.64172 2.39184C1.57593 2.40903 1.49095 2.40023 1.38676 2.36545C1.28258 2.33066 1.2229 2.28424 1.20773 2.22619C1.17031 2.083 1.24687 1.89348 1.43743 1.65763C1.63185 1.42077 1.86451 1.26694 2.13542 1.19614C2.40632 1.12534 2.65606 1.16342 2.88466 1.31039C3.11611 1.45249 3.26875 1.66479 3.34259 1.9473C3.56106 2.78322 3.07421 3.8469 1.88202 5.13833C1.97187 5.10244 2.15972 5.02234 2.44557 4.89802Z" fill="#2B526D"/>
</svg>
