<svg width="4" height="6" viewBox="0 0 4 6" fill="none" xmlns="http://www.w3.org/2000/svg">
<path d="M3.44432 2.8882C3.5569 3.20478 3.48201 3.57317 3.21963 3.99337C2.95592 4.4098 2.62432 4.68905 2.22483 4.83112C1.98739 4.91555 1.76327 4.9061 1.55246 4.80276C1.34408 4.69431 1.19164 4.50441 1.09514 4.23306C0.997303 3.95794 0.969268 3.59856 1.01104 3.15492C1.05657 2.70994 1.14135 2.29771 1.26537 1.91822C1.38938 1.53873 1.52006 1.20782 1.6574 0.925479C1.7985 0.641802 1.90675 0.486561 1.98212 0.459756C2.06127 0.43161 2.1459 0.424864 2.23602 0.439515C2.32479 0.450398 2.37655 0.476568 2.3913 0.518024C2.4047 0.555712 2.37146 0.665179 2.29157 0.846423C1.97444 1.56629 1.76462 2.11639 1.66213 2.49672C2.09387 2.38564 2.48014 2.37351 2.82093 2.46034C3.16415 2.54207 3.37195 2.68469 3.44432 2.8882ZM2.11287 4.35512C2.36161 4.26666 2.5732 4.09165 2.74764 3.83008C2.92585 3.56717 2.97877 3.33396 2.90639 3.13044C2.85546 2.98723 2.7068 2.89151 2.4604 2.84328C2.21776 2.79371 1.92136 2.80784 1.5712 2.88567C1.48471 3.37068 1.4991 3.77525 1.61436 4.09936C1.65993 4.2275 1.72614 4.31221 1.81299 4.3535C1.90361 4.39344 2.00357 4.39398 2.11287 4.35512Z" fill="#143A55"/>
</svg>
