<svg width="26" height="10" fill="none" xmlns="http://www.w3.org/2000/svg"><path fill-rule="evenodd" clip-rule="evenodd" d="M0 .5a.5.5 0 0 0 .5.5h25a.5.5 0 0 0 0-1H.5a.5.5 0 0 0-.5.5Zm0 3a.5.5 0 0 0 .5.5h25a.5.5 0 0 0 0-1H.5a.5.5 0 0 0-.5.5Zm26 3a.5.5 0 0 1-.5.5H.5a.5.5 0 0 1 0-1h25a.5.5 0 0 1 .5.5Zm-13 3a.5.5 0 0 0 .5.5h12a.5.5 0 0 0 0-1h-12a.5.5 0 0 0-.5.5Z" fill="#FA3465"/><path fill-rule="evenodd" clip-rule="evenodd" d="M0 .5a.5.5 0 0 0 .5.5h25a.5.5 0 0 0 0-1H.5a.5.5 0 0 0-.5.5Zm0 3a.5.5 0 0 0 .5.5h25a.5.5 0 0 0 0-1H.5a.5.5 0 0 0-.5.5Zm26 3a.5.5 0 0 1-.5.5H.5a.5.5 0 0 1 0-1h25a.5.5 0 0 1 .5.5Zm-13 3a.5.5 0 0 0 .5.5h12a.5.5 0 0 0 0-1h-12a.5.5 0 0 0-.5.5Z" fill="#000" fill-opacity=".2"/></svg>