<svg width="26" height="10" viewBox="0 0 26 10" fill="none" xmlns="http://www.w3.org/2000/svg">
<path fill-rule="evenodd" clip-rule="evenodd" d="M0 0.5C0 0.776142 0.223858 1 0.5 1H25.5C25.7761 1 26 0.776142 26 0.5C26 0.223858 25.7761 0 25.5 0H0.5C0.223858 0 0 0.223858 0 0.5ZM0 3.5C0 3.77614 0.223858 4 0.5 4H25.5C25.7761 4 26 3.77614 26 3.5C26 3.22386 25.7761 3 25.5 3H0.5C0.223858 3 0 3.22386 0 3.5ZM26 6.5C26 6.77614 25.7761 7 25.5 7H0.5C0.223858 7 0 6.77614 0 6.5C0 6.22386 0.223858 6 0.5 6H25.5C25.7761 6 26 6.22386 26 6.5ZM13 9.5C13 9.77614 13.2239 10 13.5 10L25.5 10C25.7761 10 26 9.77614 26 9.5C26 9.22386 25.7761 9 25.5 9L13.5 9C13.2239 9 13 9.22386 13 9.5Z" fill="#FA3465"/>
<path fill-rule="evenodd" clip-rule="evenodd" d="M0 0.5C0 0.776142 0.223858 1 0.5 1H25.5C25.7761 1 26 0.776142 26 0.5C26 0.223858 25.7761 0 25.5 0H0.5C0.223858 0 0 0.223858 0 0.5ZM0 3.5C0 3.77614 0.223858 4 0.5 4H25.5C25.7761 4 26 3.77614 26 3.5C26 3.22386 25.7761 3 25.5 3H0.5C0.223858 3 0 3.22386 0 3.5ZM26 6.5C26 6.77614 25.7761 7 25.5 7H0.5C0.223858 7 0 6.77614 0 6.5C0 6.22386 0.223858 6 0.5 6H25.5C25.7761 6 26 6.22386 26 6.5ZM13 9.5C13 9.77614 13.2239 10 13.5 10L25.5 10C25.7761 10 26 9.77614 26 9.5C26 9.22386 25.7761 9 25.5 9L13.5 9C13.2239 9 13 9.22386 13 9.5Z" fill="black" fill-opacity="0.2"/>
</svg>
