<svg width="91" height="47" viewBox="0 0 91 47" fill="none" xmlns="http://www.w3.org/2000/svg">
<mask id="path-1-inside-1_91_1923" fill="white">
<path d="M90.7678 0.305433C90.8118 6.26452 89.6817 12.1739 87.442 17.6963C85.2023 23.2186 81.8967 28.2457 77.7142 32.4906C73.5316 36.7354 68.5539 40.1149 63.0653 42.436C57.5767 44.7572 51.6846 45.9745 45.7256 46.0186C39.7665 46.0626 33.8571 44.9325 28.3347 42.6928C22.8124 40.4531 17.7853 37.1475 13.5404 32.965C9.29559 28.7824 5.91611 23.8047 3.59497 18.3161C1.27382 12.8275 0.0564783 6.93544 0.0124287 0.97636L45.3901 0.640919L90.7678 0.305433Z"/>
</mask>
<path d="M90.7678 0.305433C90.8118 6.26452 89.6817 12.1739 87.442 17.6963C85.2023 23.2186 81.8967 28.2457 77.7142 32.4906C73.5316 36.7354 68.5539 40.1149 63.0653 42.436C57.5767 44.7572 51.6846 45.9745 45.7256 46.0186C39.7665 46.0626 33.8571 44.9325 28.3347 42.6928C22.8124 40.4531 17.7853 37.1475 13.5404 32.965C9.29559 28.7824 5.91611 23.8047 3.59497 18.3161C1.27382 12.8275 0.0564783 6.93544 0.0124287 0.97636L45.3901 0.640919L90.7678 0.305433Z" stroke="#3D2690" stroke-width="4" mask="url(#path-1-inside-1_91_1923)"/>
</svg>
